<?xml version="1.0" standalone="no"?>
<!DOCTYPE svg PUBLIC "-//W3C//DTD SVG 20010904//EN"
 "http://www.w3.org/TR/2001/REC-SVG-20010904/DTD/svg10.dtd">
<svg version="1.0" xmlns="http://www.w3.org/2000/svg"
 width="1280.000000pt" height="908.000000pt" viewBox="0 0 1280.000000 908.000000"
 preserveAspectRatio="xMidYMid meet">
<g transform="translate(0.000000,908.000000) scale(0.100000,-0.100000)"
fill="#000000" stroke="none">
<path d="M3825 9060 c-956 -173 -1654 -978 -1834 -2115 -57 -362 -60 -649 -13
-1295 18 -245 39 -501 47 -569 77 -630 374 -1153 920 -1622 280 -240 551 -424
1220 -829 670 -405 1011 -660 1433 -1075 401 -392 700 -779 829 -1074 28 -65
34 -73 40 -52 14 53 99 211 168 315 255 383 762 915 1266 1328 269 220 510
388 984 683 721 449 1025 673 1315 971 352 361 549 714 645 1159 63 290 65
550 11 1290 -49 678 -67 816 -141 1100 -253 974 -938 1634 -1826 1760 -133 19
-414 19 -544 0 -627 -89 -1173 -424 -1580 -970 -113 -152 -204 -301 -300 -493
l-82 -163 -71 146 c-395 810 -1001 1330 -1740 1492 -105 23 -143 26 -377 29
-226 3 -274 1 -370 -16z"/>
</g>
</svg>
