<?xml version="1.0" standalone="no"?>
<!DOCTYPE svg PUBLIC "-//W3C//DTD SVG 20010904//EN"
 "http://www.w3.org/TR/2001/REC-SVG-20010904/DTD/svg10.dtd">
<svg version="1.0" xmlns="http://www.w3.org/2000/svg"
 width="1280.000000pt" height="1280.000000pt" viewBox="0 0 1280.000000 1280.000000"
 preserveAspectRatio="xMidYMid meet">
<g transform="translate(0.000000,1280.000000) scale(0.100000,-0.100000)"
fill="#000000" stroke="none">
<path d="M4203 10716 c-23 -29 -32 -34 -60 -30 -18 2 -33 -1 -33 -6 0 -18 -30
-10 -30 8 -1 12 -5 9 -16 -10 -17 -33 -28 -37 -19 -7 6 19 5 20 -17 8 -12 -7
-33 -12 -45 -10 -12 1 -34 -6 -49 -15 -27 -18 -27 -18 -19 6 7 23 7 24 -16 9
-13 -9 -37 -19 -54 -23 -16 -4 -33 -13 -37 -19 -6 -9 -8 -9 -8 1 0 6 -7 12
-15 12 -8 0 -15 -4 -15 -9 0 -5 -14 -11 -31 -13 -25 -4 -33 0 -42 19 -16 36
-54 31 -63 -9 -3 -18 -14 -38 -23 -45 -13 -10 -20 -7 -38 13 -18 21 -25 24
-42 14 -14 -7 -21 -21 -21 -40 0 -34 -15 -47 -35 -30 -12 10 -16 9 -21 -4 -3
-9 -11 -15 -18 -14 -6 1 -22 -4 -34 -11 -21 -11 -27 -10 -46 8 -19 18 -28 20
-49 12 -16 -6 -27 -18 -27 -29 0 -23 -29 -64 -40 -57 -5 3 -12 -1 -17 -9 -11
-20 -34 -22 -61 -8 -19 11 -25 10 -38 -2 -9 -10 -13 -24 -9 -36 4 -14 2 -20
-9 -20 -8 0 -18 5 -21 10 -12 20 -32 -9 -28 -38 4 -22 2 -24 -7 -12 -8 11 -13
12 -16 3 -3 -7 -12 -9 -20 -6 -25 9 -64 -6 -64 -26 0 -10 -8 -27 -17 -38 -19
-22 -90 -63 -109 -63 -14 0 -24 -23 -24 -55 0 -28 -81 -98 -108 -93 -23 4 -72
-28 -72 -47 0 -21 -22 -65 -32 -65 -16 0 -62 -53 -123 -140 -32 -47 -74 -105
-92 -129 -18 -24 -33 -50 -33 -58 0 -8 -20 -47 -44 -86 -24 -40 -58 -101 -76
-137 -18 -36 -36 -67 -39 -70 -4 -3 -8 -16 -9 -30 -1 -14 -11 -52 -22 -85 -12
-33 -34 -121 -50 -195 -60 -275 -78 -356 -93 -408 -9 -29 -21 -101 -27 -160
-6 -59 -15 -145 -21 -192 -10 -89 -11 -129 -5 -425 4 -166 7 -187 34 -275 26
-84 31 -116 36 -258 l6 -163 61 -180 c50 -147 62 -194 63 -250 0 -38 4 -69 7
-69 3 0 12 -26 19 -57 16 -76 89 -255 128 -318 69 -110 103 -175 121 -226 10
-30 43 -106 74 -169 30 -63 76 -167 103 -230 26 -63 63 -137 83 -165 71 -102
81 -118 75 -127 -3 -5 3 -16 13 -23 11 -8 37 -44 58 -80 22 -37 70 -103 107
-148 37 -44 90 -120 119 -168 28 -48 79 -121 113 -162 33 -41 80 -106 103
-143 35 -57 207 -259 297 -349 12 -12 40 -45 62 -71 21 -27 44 -53 51 -59 6
-5 33 -28 59 -50 27 -22 66 -60 89 -83 66 -71 226 -233 295 -298 81 -76 85
-80 185 -192 22 -25 81 -75 132 -113 50 -37 150 -124 222 -192 94 -90 160
-143 233 -188 211 -129 280 -178 366 -258 73 -67 118 -95 289 -177 87 -42 195
-103 240 -136 46 -32 106 -70 135 -83 104 -48 264 -56 372 -19 37 13 49 14 61
4 13 -11 29 -6 89 24 41 20 77 44 80 53 6 15 8 15 17 3 7 -12 10 -11 15 8 5
19 12 22 30 18 13 -4 33 -1 44 6 17 11 22 10 30 -2 8 -12 10 -12 16 3 4 10 22
20 45 23 21 4 36 10 33 15 -3 5 0 9 5 9 6 0 11 6 11 13 0 6 20 33 45 58 35 37
49 46 72 43 30 -3 56 12 47 28 -8 13 15 38 45 50 17 6 39 5 67 -2 39 -11 42
-10 72 19 19 19 25 31 16 31 -8 0 -14 3 -14 6 0 13 55 54 72 54 9 0 20 5 23
10 5 8 11 8 20 0 19 -16 62 7 63 34 0 40 20 76 38 69 11 -4 15 -3 11 5 -4 6 6
17 24 26 39 19 44 20 61 2 12 -12 20 -10 52 14 21 16 33 31 27 35 -6 3 -11 17
-11 31 0 14 4 22 10 19 6 -3 10 3 10 13 0 18 4 19 41 11 47 -11 70 1 62 30 -6
23 43 75 63 67 8 -3 14 -10 14 -16 0 -13 35 22 43 44 4 11 15 16 29 15 13 -2
33 3 46 9 17 10 21 18 16 37 -4 15 -2 25 5 25 6 0 11 9 11 19 0 25 20 38 31
20 6 -10 9 -7 9 12 0 15 7 32 15 39 13 11 20 9 38 -9 30 -27 43 -27 62 3 13
19 14 29 6 45 -16 29 -14 51 4 45 9 -4 15 0 15 10 0 8 10 21 23 27 12 7 25 17
29 23 4 6 22 12 40 12 18 1 40 2 49 3 20 1 32 51 17 69 -7 8 -7 12 1 12 6 0
11 6 11 14 0 9 7 12 21 9 14 -4 25 0 31 11 5 9 13 14 19 11 5 -4 9 -1 9 5 0 6
15 26 33 43 19 18 37 41 41 52 6 16 9 17 16 5 7 -10 10 -11 10 -2 0 7 12 20
28 30 17 11 28 28 30 46 4 28 42 76 60 76 5 0 12 9 15 20 4 16 11 19 35 14 23
-5 35 0 58 23 36 35 64 78 64 98 0 18 16 20 24 3 3 -7 4 -1 2 14 -2 22 1 28
16 28 30 0 78 29 78 48 1 9 19 31 40 47 21 17 39 37 40 46 0 8 11 26 25 39 14
13 25 29 25 36 0 8 6 11 14 8 8 -3 16 3 19 15 3 14 13 21 30 21 30 0 50 21 41
44 -3 9 -1 16 5 16 6 0 11 9 11 20 0 15 7 20 29 20 34 0 51 31 30 56 -10 12
-9 13 4 8 11 -4 16 1 19 18 2 13 9 22 17 20 23 -5 38 16 33 49 -4 30 -3 31 22
25 26 -6 34 2 16 20 -11 11 -2 54 12 54 6 0 8 7 4 15 -5 14 5 20 27 16 5 -1 6
8 2 19 -4 14 -2 20 8 20 8 0 17 -10 20 -22 5 -18 8 -19 22 -8 13 11 13 15 3
21 -9 6 -4 9 14 9 29 0 43 14 44 45 3 74 5 86 14 80 13 -8 42 14 34 26 -3 5 4
19 15 31 12 12 21 26 21 30 0 5 11 6 24 4 18 -3 29 2 40 19 9 14 12 26 6 30
-12 7 -8 68 5 77 5 4 14 3 20 -2 15 -13 51 13 41 28 -4 7 -14 12 -23 12 -10 0
-13 6 -9 16 3 9 6 23 6 31 0 13 3 13 15 3 13 -11 15 -8 15 14 0 14 4 26 10 26
5 0 12 11 16 24 5 21 11 24 42 21 22 -1 42 3 51 13 16 16 24 82 9 82 -4 0 -8
-5 -8 -12 0 -9 -3 -9 -11 -1 -14 14 -1 36 17 29 11 -4 12 -1 6 12 -12 21 -5
42 14 42 8 0 14 7 14 16 0 14 1 14 16 0 22 -23 36 -10 29 26 -7 28 -5 30 16
23 13 -3 19 -3 13 2 -11 8 -14 73 -3 73 3 0 10 -5 16 -11 16 -16 26 6 13 30
-7 14 -7 22 1 26 5 4 14 18 19 31 7 16 14 22 26 17 13 -5 15 -2 10 15 -5 15
-1 24 14 32 11 6 25 8 31 4 6 -3 16 2 24 12 11 16 11 24 -1 53 -19 44 -18 49
9 53 16 2 22 10 22 28 1 18 6 24 17 22 14 -2 16 4 11 34 -4 25 -3 35 4 31 13
-8 26 35 17 56 -4 12 0 14 17 10 17 -5 21 -3 17 8 -20 49 -21 52 -11 46 14 -9
25 34 12 49 -11 14 16 28 34 17 7 -3 4 2 -5 13 -12 13 -14 24 -8 34 5 8 7 24
4 34 -5 15 -3 18 10 13 14 -6 16 -3 11 13 -4 11 -2 20 3 20 15 0 21 37 8 50
-8 9 -6 11 10 6 18 -6 21 -2 22 26 2 67 3 70 19 64 11 -4 14 -2 9 9 -8 21 33
87 50 81 11 -4 13 1 8 19 -4 15 -2 25 4 25 6 0 14 16 18 36 5 26 10 34 21 29
12 -4 14 1 11 25 -3 16 0 30 5 30 5 0 7 6 4 14 -3 8 5 18 20 25 21 10 23 14
13 26 -11 13 -10 14 4 9 14 -5 17 -2 14 17 -2 16 -9 23 -20 21 -21 -3 -23 12
-7 57 7 21 16 30 25 27 17 -6 17 -5 4 28 -8 21 -6 26 6 26 8 0 12 5 9 10 -3 6
2 10 12 10 22 0 45 33 37 54 -3 8 -16 17 -30 20 -22 6 -35 26 -16 26 11 0 12
32 0 46 -5 8 -3 14 8 18 12 5 14 9 5 20 -6 7 -9 21 -5 30 5 12 10 13 25 5 28
-14 60 17 48 49 -5 12 -15 22 -24 22 -22 0 -18 27 5 33 11 3 20 10 20 16 0 6
-9 19 -20 28 -28 24 -25 36 7 28 21 -5 24 -4 16 7 -16 20 -27 62 -14 54 15
-10 14 7 -1 23 -10 11 -10 13 0 7 14 -8 17 10 2 19 -5 3 -10 15 -10 26 0 16 5
18 27 13 l27 -7 -22 28 c-23 29 -29 51 -12 40 6 -3 10 -2 10 4 0 5 -5 13 -11
17 -8 4 -7 9 2 15 11 6 10 9 -4 15 -9 3 -17 15 -17 26 0 16 5 19 23 15 l22 -6
-21 17 c-12 9 -25 28 -29 41 -6 20 -4 23 9 18 10 -4 15 -3 11 3 -3 6 1 10 10
10 14 0 14 2 -1 25 -10 15 -12 25 -5 25 6 0 10 3 10 8 -4 25 3 42 19 42 11 0
27 8 36 19 14 15 15 23 5 44 -6 14 -22 28 -36 32 -13 3 -21 10 -17 16 3 6 -2
16 -12 24 -25 18 -12 30 16 15 25 -13 22 -2 -8 32 -14 16 -12 18 16 24 18 4
32 12 32 18 0 26 -26 65 -47 71 -19 4 -21 10 -17 34 4 16 1 32 -5 35 -20 13
-12 26 15 26 21 0 24 3 15 13 -8 11 -5 17 13 26 36 20 24 57 -22 66 -34 6 -35
8 -18 21 17 12 17 14 3 20 -20 7 -42 67 -27 72 5 2 8 8 4 13 -3 5 4 9 15 9
l21 0 -21 21 c-16 16 -18 23 -9 29 9 6 7 11 -6 19 -11 6 -13 11 -6 11 9 0 8 7
-4 25 -15 24 -15 25 2 25 18 1 18 1 1 11 -14 8 -17 18 -11 42 3 18 11 35 17
39 8 5 3 16 -13 32 -13 15 -19 26 -13 26 6 0 9 9 6 20 -3 11 -12 20 -19 20
-21 0 -17 9 17 37 45 38 37 67 -20 73 -26 3 -46 11 -49 19 -3 10 1 12 17 8 27
-7 27 0 -1 24 -13 10 -18 18 -11 19 7 0 10 7 7 15 -4 10 3 18 20 25 28 10 26
35 -5 57 -9 7 -15 21 -13 30 6 25 -6 38 -46 50 -26 8 -29 11 -12 12 30 1 28
13 -5 33 -16 10 -23 18 -16 18 15 0 4 40 -12 40 -7 0 -15 7 -19 15 -3 10 1 15
14 15 30 0 34 19 6 32 -15 6 -26 16 -25 22 4 35 -2 48 -20 43 -17 -4 -19 0
-16 24 2 20 -1 29 -10 29 -8 0 -17 9 -20 21 -4 11 -13 18 -20 15 -7 -2 -16 1
-19 9 -3 9 7 15 34 20 50 8 59 37 23 71 -32 29 -43 30 -43 4 0 -21 -15 -27
-25 -9 -4 6 -13 8 -21 5 -23 -9 -16 20 9 37 17 12 18 16 6 16 -22 1 -48 31
-28 31 10 1 9 4 -3 14 -10 7 -14 17 -10 21 4 4 -3 6 -15 3 -15 -4 -23 0 -26
12 -3 13 2 20 20 25 13 3 22 11 20 18 -2 7 0 22 4 35 5 12 5 22 -1 22 -5 0
-15 6 -23 14 -11 11 -24 12 -53 6 -27 -6 -41 -5 -46 3 -12 19 -10 24 15 32 23
7 20 9 -27 20 -23 5 -26 9 -16 15 12 7 12 10 -3 16 -9 3 -14 10 -11 15 3 6 -5
7 -19 4 -31 -8 -46 21 -16 30 10 4 17 11 13 16 -3 5 -9 7 -14 4 -20 -12 -39 7
-35 37 4 33 -31 78 -61 78 -13 0 -14 3 -4 15 14 16 7 19 -39 15 -16 -1 -21 2
-16 11 6 9 2 11 -15 6 -14 -3 -28 0 -38 9 -13 14 -12 16 7 21 11 3 21 9 21 14
0 5 -7 6 -15 3 -17 -7 -20 7 -4 23 8 8 6 18 -6 36 -14 22 -19 24 -45 14 -17
-6 -30 -15 -30 -19 0 -4 -12 -8 -27 -8 -14 0 -24 3 -20 6 11 12 -23 37 -36 26
-7 -5 -21 -6 -32 -2 -19 7 -19 7 3 21 30 19 28 29 -9 29 -17 0 -28 4 -24 10 6
10 -13 15 -47 12 -11 -1 -18 5 -18 16 0 17 -17 22 -84 22 -28 1 -28 1 -11 20
17 19 17 20 -3 20 -14 0 -23 7 -24 18 0 9 -2 22 -3 27 -2 6 -3 16 -4 23 0 6
-8 12 -17 12 -12 0 -15 -7 -12 -25 4 -20 0 -26 -25 -35 l-30 -10 19 21 19 22
-25 -13 -25 -13 23 25 c30 33 28 39 -10 31 -19 -4 -29 -2 -25 3 3 6 2 16 -2
22 -6 10 -14 10 -37 1 -56 -23 -61 -21 -44 12 12 21 1 26 -17 8 -8 -8 -20 -9
-42 -1 -19 7 -33 7 -36 1 -4 -5 -10 -9 -16 -9 -5 0 -2 16 6 36 15 36 14 38 -7
53 -13 9 -25 16 -28 15 -28 -6 -47 -19 -55 -37 -14 -30 -45 -36 -38 -7 5 20 4
21 -16 8 -14 -9 -24 -10 -29 -3 -6 9 -28 12 -42 6 -3 -2 -13 -4 -23 -6 -14 -3
-16 1 -11 18 7 22 6 22 -15 3 -25 -23 -27 -16 -6 24 18 34 14 36 -20 14 -14
-9 -25 -12 -25 -6 0 12 -48 13 -56 1 -9 -15 -24 -10 -18 6 7 18 -17 20 -34 3
-8 -8 -15 -9 -20 -3 -4 6 -14 10 -22 10 -8 0 -16 9 -18 20 -4 32 -36 47 -67
33 -14 -6 -25 -18 -25 -26 0 -9 -3 -12 -7 -9 -3 4 -12 2 -20 -4 -10 -9 -13 -8
-13 1 0 10 -3 10 -15 0 -16 -14 -35 -6 -35 16 0 8 -4 14 -9 14 -5 0 -16 3 -25
6 -11 4 -17 -2 -22 -23 -8 -32 -22 -53 -36 -53 -5 0 -6 6 -2 13 4 6 -2 3 -14
-7 -24 -21 -28 -12 -12 28 10 27 2 34 -16 16 -12 -12 -44 -3 -44 11 0 5 -13 9
-30 9 -20 0 -34 -8 -45 -23 -11 -17 -23 -23 -46 -22 -18 1 -33 -4 -36 -12 -3
-7 -12 -13 -20 -13 -9 0 -13 6 -9 15 3 8 1 15 -5 15 -5 0 -12 -6 -15 -13 -3
-8 -19 -14 -36 -14 -18 0 -34 -5 -36 -11 -5 -17 -32 -15 -32 3 0 17 -4 18 -28
6 -33 -17 -100 -33 -111 -27 -6 4 -11 2 -11 -4 0 -6 -13 -16 -30 -21 -16 -6
-30 -15 -30 -20 0 -17 -20 -9 -20 9 -1 16 -1 16 -14 0 -7 -10 -25 -18 -39 -18
-14 0 -29 -5 -32 -10 -4 -6 -11 -8 -16 -4 -5 3 -7 10 -4 15 3 5 0 15 -7 22
-14 16 -48 11 -48 -7 0 -7 -21 -22 -47 -34 -36 -16 -49 -19 -56 -9 -6 9 -11 8
-19 -4 -10 -14 -16 -15 -56 -3 -42 13 -46 13 -59 -6 -8 -12 -20 -25 -26 -30
-68 -55 -78 -61 -96 -55 -11 3 -30 -1 -43 -9 -13 -8 -40 -14 -60 -14 -31 0
-43 -7 -79 -46 -27 -29 -49 -44 -58 -41 -8 3 -18 1 -21 -6 -5 -8 -13 -7 -27 2
-28 17 -52 5 -59 -31 -7 -33 -23 -49 -33 -32 -9 15 -36 -9 -36 -33 0 -29 -60
-55 -99 -44 -23 7 -32 5 -39 -6 -4 -8 -14 -15 -21 -15 -7 0 -21 -9 -31 -20
-10 -11 -27 -20 -37 -20 -10 0 -21 -7 -24 -15 -4 -8 -12 -15 -20 -15 -7 0 -19
-8 -26 -18 -14 -20 -99 -62 -124 -62 -12 0 -14 3 -6 13 9 10 3 13 -26 12 -20
0 -42 -4 -48 -8 -20 -12 -24 6 -7 26 17 18 17 19 -2 16 -12 -2 -32 6 -45 19
-13 12 -28 22 -34 22 -5 0 -1 6 9 14 18 13 18 14 -1 19 -10 4 -31 5 -45 3 -23
-3 -26 1 -27 32 -2 42 -28 75 -41 53 -6 -9 -11 -10 -15 -2 -11 17 -23 13 -29
-10 -4 -17 -10 -20 -24 -13 -10 4 -33 7 -50 7 -36 -2 -42 7 -18 27 18 15 20
31 3 29 -33 -4 -39 1 -28 22 9 17 8 23 -7 35 -10 7 -24 11 -31 9 -8 -3 -18 -5
-23 -5 -5 0 -9 -9 -9 -20 0 -11 -4 -20 -9 -20 -6 0 -8 9 -6 20 4 23 -5 26 -24
8 -10 -10 -15 -10 -18 -1 -2 7 -11 9 -19 6 -8 -3 -14 0 -14 6 0 8 -6 8 -20 -1
-22 -14 -39 -3 -22 14 19 19 14 28 -11 19 -15 -6 -26 -4 -35 5 -8 9 -22 12
-39 8 -22 -6 -24 -4 -18 15 5 15 3 19 -8 16 -7 -3 -25 -1 -39 4 -18 7 -29 6
-37 -2 -8 -8 -11 -5 -11 11 0 23 -10 28 -25 13 -6 -6 -15 -4 -23 5 -11 12 -10
15 2 20 24 9 19 42 -9 60 -24 16 -27 16 -48 -3 -28 -26 -52 -40 -44 -26 9 14
-35 25 -47 13 -13 -13 -29 -13 -21 0 11 17 -5 32 -20 20 -10 -8 -19 -8 -34 -1
-13 7 -22 8 -26 1 -3 -5 -11 -10 -17 -10 -7 0 -7 4 0 13 21 27 23 56 5 74 -26
26 -69 5 -65 -31 2 -18 -3 -26 -19 -31 -15 -5 -25 -3 -27 4 -3 9 -7 9 -18 0
-20 -17 -17 2 6 31 22 28 26 48 8 33 -7 -6 -23 -13 -35 -15 -16 -4 -20 -2 -16
8 6 17 -9 18 -26 2 -11 -10 -13 -10 -7 0 9 16 -6 16 -22 0 -10 -10 -15 -10
-22 2 -5 8 -6 18 -4 22 3 4 1 8 -4 8 -6 0 -12 -6 -15 -14 -3 -9 -17 -12 -36
-10 -16 2 -33 -1 -36 -6 -12 -19 -26 -10 -19 12 6 20 5 21 -9 10 -10 -9 -24
-11 -39 -6 -13 4 -27 8 -31 9 -4 0 -11 6 -16 14 -7 10 -13 11 -29 2 -27 -14
-72 5 -72 30 0 10 -12 25 -26 32 -24 13 -29 12 -48 -7 -12 -12 -21 -25 -22
-31 -2 -22 -17 -45 -29 -45 -9 0 -11 8 -7 22 4 16 2 19 -9 13 -7 -5 -26 -8
-42 -7 -16 2 -36 -3 -43 -9 -11 -9 -14 -7 -14 12 0 18 -3 20 -12 11 -19 -19
-28 -14 -28 14 0 24 -23 53 -42 54 -4 0 -19 -15 -35 -34z m1137 -256 c0 -5 -7
-10 -16 -10 -8 0 -12 5 -9 10 3 6 10 10 16 10 5 0 9 -4 9 -10z m2906 -229 c27
-5 119 -15 204 -21 228 -18 357 -55 525 -153 27 -16 79 -45 115 -64 114 -62
284 -179 325 -225 146 -161 157 -176 310 -406 20 -29 42 -77 49 -105 12 -45
93 -213 116 -242 25 -32 50 -144 50 -229 0 -82 47 -367 66 -397 5 -8 15 -288
16 -444 0 -27 -7 -78 -16 -111 -11 -42 -16 -106 -16 -195 0 -87 -6 -155 -16
-194 -8 -33 -19 -127 -23 -210 -8 -133 -13 -162 -44 -255 -20 -58 -46 -143
-57 -190 -31 -127 -59 -207 -100 -290 -36 -72 -68 -147 -123 -290 -38 -98 -88
-200 -99 -200 -5 0 -8 -6 -5 -12 6 -17 -16 -60 -123 -243 -138 -237 -299 -486
-368 -570 -13 -16 -50 -64 -81 -106 -31 -42 -102 -132 -158 -200 -55 -68 -123
-156 -150 -195 -53 -79 -118 -154 -132 -154 -8 0 -64 -61 -129 -141 -129 -158
-228 -266 -253 -274 -16 -5 -28 -14 -28 -20 3 -24 -2 -34 -15 -29 -7 3 -16 -2
-19 -10 -4 -9 -13 -16 -21 -16 -8 0 -63 -48 -123 -107 -59 -60 -134 -128 -165
-153 -31 -25 -57 -50 -58 -57 0 -6 -9 -14 -19 -18 -11 -3 -23 -15 -26 -25 -9
-28 -133 -139 -180 -160 -22 -10 -49 -28 -59 -39 -11 -12 -25 -21 -33 -21 -7
0 -13 -4 -13 -9 0 -5 -8 -12 -17 -16 -10 -3 -43 -28 -73 -56 -90 -83 -147
-129 -152 -124 -3 3 -11 -1 -18 -10 -7 -8 -18 -15 -25 -15 -6 0 -20 -9 -30
-20 -10 -11 -24 -20 -32 -20 -7 0 -13 -4 -13 -10 0 -5 -8 -10 -19 -10 -10 0
-25 -7 -32 -16 -7 -9 -22 -20 -34 -25 -31 -14 -68 -39 -148 -102 -41 -31 -79
-57 -84 -57 -5 0 -18 -9 -28 -20 -14 -16 -20 -18 -27 -8 -6 10 -11 9 -22 -4
-7 -10 -19 -18 -26 -18 -6 0 -25 -9 -41 -21 -18 -12 -50 -22 -81 -24 -44 -4
-58 -10 -85 -39 -46 -49 -67 -53 -98 -20 -22 24 -27 25 -54 14 -16 -6 -31 -20
-34 -31 -3 -13 -11 -17 -22 -13 -14 6 -14 8 0 24 22 25 19 30 -15 23 -26 -5
-29 -3 -24 12 6 14 3 16 -14 10 -14 -4 -22 -2 -22 6 0 8 -4 8 -15 -1 -20 -16
-32 -5 -16 14 10 12 9 20 -4 40 -16 25 -34 26 -62 3 -9 -6 -13 -5 -13 4 0 10
-3 10 -12 1 -7 -7 -19 -12 -28 -12 -13 1 -13 2 1 13 13 10 14 14 3 25 -8 7
-15 8 -19 2 -3 -6 -13 -10 -21 -10 -8 0 -13 3 -11 8 8 12 -19 31 -33 22 -20
-12 -41 11 -26 29 9 12 8 13 -4 6 -8 -5 -34 -10 -58 -11 -43 -3 -44 -3 -27 16
17 19 17 20 -3 20 -11 0 -22 5 -24 12 -2 6 -15 12 -29 14 -13 1 -27 3 -31 3
-11 1 3 34 21 49 14 12 13 13 -6 9 -16 -4 -23 1 -28 20 -5 20 -9 22 -19 13
-11 -9 -15 -3 -21 30 -6 37 -9 40 -40 40 -21 0 -35 -6 -39 -16 -4 -10 -12 -14
-22 -10 -9 4 -22 2 -28 -3 -6 -6 -17 -7 -24 -2 -8 5 -5 14 11 31 l22 24 -22
24 c-20 22 -26 24 -49 13 -19 -8 -23 -8 -18 0 5 9 -1 10 -20 5 -25 -6 -36 6
-16 19 18 11 1 23 -25 17 -15 -2 -25 0 -25 7 0 6 -7 11 -16 11 -8 0 -12 5 -9
10 9 14 -8 12 -24 -2 -11 -11 -13 -10 -8 5 4 9 2 17 -4 17 -6 0 -8 4 -5 9 3 5
-6 8 -21 9 -15 0 -29 4 -31 10 -2 6 -11 8 -20 4 -16 -6 -16 -4 0 20 17 26 17
27 -10 46 -37 26 -54 31 -74 21 -27 -14 -34 12 -8 31 l23 17 -38 7 c-29 6 -35
10 -24 17 13 8 5 13 -15 10 -5 -1 -6 10 -3 25 8 42 -20 66 -63 54 -18 -5 -36
-7 -39 -5 -2 3 1 5 8 5 7 0 9 5 6 10 -4 6 -11 8 -16 5 -5 -4 -9 3 -9 14 0 12
-7 21 -15 21 -8 0 -15 -4 -15 -9 0 -5 -10 -7 -21 -4 -19 5 -20 8 -7 17 12 9 6
11 -31 10 -61 -1 -67 3 -39 34 18 20 19 24 6 19 -22 -8 -50 2 -42 14 3 5 -2 9
-11 9 -9 0 -13 5 -9 11 4 8 0 9 -15 4 -34 -10 -47 5 -21 25 l23 17 -32 6 c-18
4 -30 11 -26 17 3 5 -1 10 -10 10 -10 0 -13 5 -9 11 5 9 -1 10 -20 5 -30 -7
-35 8 -8 23 15 10 15 11 -6 17 -18 5 -20 9 -11 21 19 22 -5 66 -31 58 -11 -4
-20 -2 -20 4 0 6 -9 11 -20 11 -11 0 -20 4 -20 10 0 5 -7 6 -17 3 -11 -4 -14
-3 -9 5 4 7 1 12 -9 12 -10 0 -13 5 -9 11 5 8 -1 10 -20 7 -18 -4 -26 -1 -26
8 0 8 5 14 10 14 6 0 10 7 10 15 0 8 -4 15 -10 15 -5 0 -10 7 -10 16 0 12 -7
15 -25 12 -13 -3 -26 0 -28 6 -3 8 -9 7 -19 -2 -11 -9 -18 -10 -23 -2 -3 5 -1
10 4 10 23 0 10 22 -19 31 -16 6 -30 15 -30 21 0 5 -9 6 -20 3 -22 -7 -26 5
-8 23 9 9 6 12 -15 12 -18 0 -25 4 -21 14 5 14 -22 30 -36 21 -5 -3 -11 -1
-15 5 -3 6 1 13 9 16 18 7 22 34 5 34 -6 0 -17 6 -25 14 -11 12 -12 20 -3 40
16 34 -10 63 -41 46 -11 -6 -18 -15 -15 -20 3 -5 1 -11 -5 -15 -12 -8 -42 20
-32 30 4 4 -3 4 -15 1 -27 -9 -30 2 -6 20 16 12 15 13 -11 14 -16 0 -26 3 -23
7 11 10 -13 32 -29 26 -17 -6 -19 13 -1 20 7 4 4 8 -8 12 -23 7 -32 45 -11 45
8 0 16 14 18 31 4 25 0 33 -24 45 -25 13 -32 13 -46 2 -12 -10 -14 -10 -8 0 5
8 0 12 -14 12 -13 0 -19 4 -14 12 5 8 0 9 -14 6 -12 -4 -22 -5 -22 -3 0 2 -3
10 -6 18 -3 9 3 17 18 22 21 6 20 8 -15 17 -31 8 -35 13 -26 24 9 11 8 14 -5
14 -10 0 -14 5 -10 11 5 8 -1 10 -20 7 -30 -6 -34 6 -9 30 16 16 15 17 -5 20
-12 2 -19 8 -16 14 7 11 -35 45 -50 40 -5 -2 -4 3 3 12 15 18 0 29 -32 21 -15
-4 -30 -1 -38 8 -8 7 -20 12 -27 9 -18 -6 -15 25 4 32 9 4 22 2 29 -4 8 -6 16
-7 19 -2 5 9 -18 23 -59 37 -18 6 -18 8 -4 18 24 18 28 40 10 54 -13 9 -20 8
-38 -9 -12 -11 -26 -17 -32 -13 -16 9 -3 25 20 25 31 0 22 17 -13 24 -29 6
-30 7 -14 24 21 24 12 32 -36 32 -43 0 -46 4 -21 28 16 16 15 17 -17 20 -25 3
-30 6 -19 13 11 7 11 9 -4 9 -11 0 -15 4 -11 12 5 8 0 9 -14 6 -19 -5 -21 -3
-16 18 4 17 2 24 -9 24 -8 0 -17 7 -21 15 -3 8 -15 15 -26 15 -24 0 -27 15 -3
24 15 6 14 8 -2 20 -17 12 -17 13 2 18 12 3 22 16 25 32 4 21 -1 30 -26 46
-17 11 -27 20 -22 20 5 0 3 7 -4 15 -9 11 -16 12 -31 2 -14 -8 -22 -9 -27 -1
-4 6 -16 14 -26 18 -15 5 -17 9 -8 18 9 9 15 9 23 1 16 -16 39 -5 39 19 0 17
-5 20 -29 15 -37 -8 -57 11 -33 30 15 13 15 14 0 9 -9 -2 -19 2 -22 10 -3 8
-13 14 -22 12 -9 -2 -19 3 -21 10 -3 7 4 12 16 12 28 0 27 16 -1 24 -18 4 -20
8 -10 18 19 19 15 55 -8 61 -11 3 -23 1 -26 -4 -7 -12 -34 -11 -34 1 0 6 10
14 22 19 20 7 19 9 -17 21 -22 7 -34 15 -27 17 18 7 15 23 -5 23 -15 0 -16 2
-3 10 12 8 9 10 -12 10 -34 0 -37 17 -5 29 21 9 21 10 -11 21 -26 10 -30 15
-21 26 9 11 8 14 -5 14 -10 0 -14 5 -11 10 3 6 -1 10 -9 10 -9 0 -16 7 -16 15
0 8 7 15 15 15 22 0 18 14 -7 25 -14 6 -22 17 -20 28 2 11 -4 17 -15 17 -15 0
-16 2 -3 10 12 8 9 10 -12 10 -16 0 -28 5 -28 10 0 6 10 8 24 4 30 -7 47 18
39 58 -5 24 -9 26 -44 23 -21 -2 -39 1 -39 6 0 5 -9 9 -20 9 -26 0 -26 19 1
28 20 8 20 8 -5 20 -17 7 -24 17 -20 27 3 8 1 15 -6 15 -6 0 -8 5 -5 10 3 6
-4 10 -17 11 -21 1 -21 2 -3 7 43 14 53 26 48 55 -4 22 -11 27 -34 27 -16 0
-29 -5 -29 -11 0 -8 -4 -8 -15 1 -8 6 -19 9 -25 5 -5 -3 -10 -1 -10 4 0 6 7
11 15 11 22 0 18 18 -4 25 -11 3 -18 12 -15 19 3 7 -3 21 -12 31 -15 14 -15
18 -3 26 8 5 20 9 27 9 6 0 12 5 12 10 0 6 -5 10 -11 10 -6 0 -17 6 -25 14
-11 11 -11 16 -1 20 9 5 9 7 -1 12 -6 3 -9 10 -6 16 3 5 -4 12 -15 15 -25 6
-22 29 3 26 12 -1 15 4 11 15 -4 10 -9 29 -12 45 -3 15 -9 30 -14 33 -4 2 -6
11 -2 19 3 8 0 15 -7 15 -6 0 -9 4 -6 9 3 5 -6 12 -20 15 -21 6 -24 9 -14 21
7 8 9 15 4 15 -5 0 -3 4 5 9 13 8 13 12 0 27 -11 13 -11 18 -1 21 20 7 14 43
-7 43 -11 0 -23 -5 -26 -10 -4 -6 -11 -7 -17 -4 -6 4 -5 10 3 15 10 6 10 9 2
9 -7 0 -10 7 -7 15 4 10 0 15 -15 15 -12 0 -21 5 -21 11 0 6 7 9 15 5 21 -8
19 21 -2 33 -10 6 -12 11 -5 11 6 0 12 7 12 15 0 9 7 18 15 21 24 10 13 37
-25 63 -19 14 -29 26 -22 29 7 2 9 9 5 15 -4 7 -9 21 -10 32 -2 10 -9 23 -16
27 -8 5 -6 8 6 8 17 0 17 1 3 16 -9 8 -16 20 -16 25 0 6 -8 18 -17 27 -16 16
-15 17 7 20 l24 4 -25 19 c-13 10 -19 19 -12 19 13 0 5 40 -8 40 -5 0 -9 5 -9
11 0 6 7 9 15 5 20 -7 19 3 -2 26 -9 10 -11 18 -5 18 5 0 8 9 5 20 -3 11 -9
20 -14 20 -5 0 -9 5 -9 10 0 6 9 10 19 10 10 0 21 7 25 15 3 8 12 15 21 15 10
0 15 10 15 28 0 22 -10 36 -45 61 -36 26 -42 35 -33 45 7 7 20 11 30 8 26 -6
22 18 -7 53 -25 29 -26 29 -5 37 25 9 26 24 0 40 -24 15 -28 53 -5 44 19 -7
19 -1 -1 28 -14 23 -14 25 4 31 29 9 35 33 12 47 -11 7 -20 18 -20 25 0 6 -6
14 -12 16 -8 3 -5 6 6 6 15 1 16 4 6 16 -10 12 -10 15 1 15 10 1 9 4 -3 14
-23 17 -23 36 -1 36 14 0 15 2 1 18 -10 11 -13 24 -8 37 4 11 3 28 -2 39 -9
16 -7 18 16 14 30 -6 32 -1 11 26 -20 26 -19 37 3 29 15 -6 15 -4 -2 15 -18
21 -18 22 -1 22 17 0 17 1 3 13 -9 6 -19 23 -23 35 -6 21 -5 23 13 13 31 -17
37 -13 12 7 -23 19 -21 42 5 42 16 0 30 33 15 38 -7 3 -4 10 7 18 16 13 16 14
-9 8 -24 -5 -28 -3 -28 14 0 12 -4 24 -10 27 -21 13 -9 24 16 15 36 -14 44
-13 44 9 0 14 -5 18 -19 14 -10 -3 -22 0 -25 6 -4 6 -2 11 3 11 12 0 10 28 -3
49 -7 11 -5 13 8 8 15 -6 17 -3 12 18 -4 14 -3 25 2 25 5 0 8 16 7 35 -2 28 2
35 14 34 9 -1 28 1 43 5 24 7 27 12 21 35 -3 14 -10 27 -14 29 -5 2 -19 12
-31 23 -19 15 -20 20 -9 28 9 6 11 18 7 36 -6 24 -5 26 16 19 20 -6 21 -5 9 9
-11 14 -10 19 3 32 9 9 16 26 16 37 0 14 5 18 16 14 17 -6 50 20 55 44 2 8 -5
30 -15 48 -20 38 -15 52 10 31 16 -13 17 -11 10 15 -5 19 -3 32 5 37 7 4 13
24 13 43 0 20 4 36 8 36 4 0 8 -4 8 -10 0 -5 5 -10 10 -10 7 0 8 13 4 36 -4
25 -3 35 4 31 12 -8 25 39 15 56 -4 7 0 7 10 -2 15 -12 17 -11 18 5 1 11 1 25
0 32 -1 6 2 12 8 12 5 0 12 13 16 29 3 16 13 32 21 35 10 4 13 13 9 26 -3 11
-2 20 4 20 5 0 15 16 21 35 6 19 15 33 19 31 4 -3 14 10 21 29 8 21 18 31 27
28 7 -3 13 2 13 11 0 8 14 22 30 31 17 9 30 20 30 25 0 5 7 7 15 4 9 -4 15 0
15 10 0 9 13 28 30 42 16 15 32 35 35 45 4 11 12 16 21 12 9 -3 12 0 9 9 -4 9
5 20 22 29 15 8 34 22 41 32 7 9 21 17 30 17 10 0 47 25 84 55 36 30 68 51 72
48 3 -3 6 0 6 8 1 37 228 130 330 135 30 2 100 11 155 21 74 13 154 18 310 18
235 0 387 -14 550 -50 61 -13 141 -29 180 -35 83 -13 292 -90 465 -171 69 -32
155 -69 192 -83 69 -26 201 -106 298 -182 74 -58 127 -79 240 -99 52 -9 97
-21 98 -26 6 -16 91 -10 130 10 50 25 92 34 92 21 0 -7 5 -8 13 -3 6 4 17 8
22 8 25 2 44 19 50 43 6 27 43 52 77 52 10 0 33 8 51 18 23 12 31 23 29 38 -4
27 54 66 106 70 49 5 88 22 140 61 24 18 50 33 58 33 8 0 35 11 61 24 27 14
80 39 118 56 39 17 77 35 85 40 35 22 130 63 200 88 58 20 92 25 150 24 52 -1
93 5 132 18 78 27 138 36 138 21 0 -9 6 -8 23 1 12 7 49 16 82 20 33 4 80 11
105 16 61 13 157 14 216 3z m1389 -31 c-3 -5 -13 -6 -21 -3 -12 4 -13 8 -3 14
15 9 32 2 24 -11z m-3665 0 c0 -5 -5 -10 -11 -10 -5 0 -7 5 -4 10 3 6 8 10 11
10 2 0 4 -4 4 -10z m4410 -1160 c0 -5 -4 -10 -10 -10 -5 0 -10 5 -10 10 0 6 5
10 10 10 6 0 10 -4 10 -10z m-7860 -211 c0 -6 -4 -7 -10 -4 -5 3 -10 11 -10
16 0 6 5 7 10 4 6 -3 10 -11 10 -16z m7990 -703 c0 -11 -19 -15 -25 -6 -3 5 1
10 9 10 9 0 16 -2 16 -4z m-8045 -377 c11 -17 0 -20 -21 -4 -17 13 -17 14 -2
15 9 0 20 -5 23 -11z m4 -98 c9 -6 10 -11 2 -15 -13 -8 -31 1 -31 15 0 11 11
11 29 0z m136 -771 c3 -5 -1 -10 -9 -10 -9 0 -16 5 -16 10 0 6 4 10 9 10 6 0
13 -4 16 -10z m40 -110 c3 -5 -1 -10 -9 -10 -9 0 -16 5 -16 10 0 6 4 10 9 10
6 0 13 -4 16 -10z m620 -1280 c3 -5 1 -10 -4 -10 -6 0 -11 5 -11 10 0 6 2 10
4 10 3 0 8 -4 11 -10z m852 -1106 c-3 -3 -12 -4 -19 -1 -8 3 -5 6 6 6 11 1 17
-2 13 -5z m404 -407 c-8 -8 -11 -7 -11 4 0 20 13 34 18 19 3 -7 -1 -17 -7 -23z"/>
<path d="M2550 8876 c0 -8 4 -17 9 -20 10 -7 23 19 14 28 -11 11 -23 6 -23 -8z"/>
<path d="M4070 4480 c0 -5 5 -10 10 -10 6 0 10 5 10 10 0 6 -4 10 -10 10 -5 0
-10 -4 -10 -10z"/>
<path d="M4580 10679 c0 -5 5 -7 10 -4 6 3 10 8 10 11 0 2 -4 4 -10 4 -5 0
-10 -5 -10 -11z"/>
<path d="M9586 10302 c-3 -6 -1 -14 5 -17 15 -10 25 3 12 16 -7 7 -13 7 -17 1z"/>
</g>
</svg>
